<?xml version="1.0" encoding="UTF-8" standalone="no"?>
<!-- Created with Inkscape (http://www.inkscape.org/) -->

<svg
   xmlns:dc="http://purl.org/dc/elements/1.1/"
   xmlns:cc="http://creativecommons.org/ns#"
   xmlns:rdf="http://www.w3.org/1999/02/22-rdf-syntax-ns#"
   xmlns:svg="http://www.w3.org/2000/svg"
   xmlns="http://www.w3.org/2000/svg"
   xmlns:xlink="http://www.w3.org/1999/xlink"
   xmlns:sodipodi="http://sodipodi.sourceforge.net/DTD/sodipodi-0.dtd"
   xmlns:inkscape="http://www.inkscape.org/namespaces/inkscape"
   width="210mm"
   height="217mm"
   viewBox="0 0 210 217"
   version="1.1"
   id="svg8"
   inkscape:version="0.92.3 (2405546, 2018-03-11)"
   sodipodi:docname="drawing.svg">
  <defs
     id="defs2">
    <linearGradient
       inkscape:collect="always"
       id="linearGradient927">
      <stop
         style="stop-color:#a4551a;stop-opacity:1;"
         offset="0"
         id="stop923" />
      <stop
         style="stop-color:#8d3d02;stop-opacity:1"
         offset="1"
         id="stop925" />
    </linearGradient>
    <linearGradient
       inkscape:collect="always"
       id="linearGradient887">
      <stop
         style="stop-color:#ffffff;stop-opacity:1"
         offset="0"
         id="stop883" />
      <stop
         style="stop-color:#dedbe3;stop-opacity:1"
         offset="1"
         id="stop885" />
    </linearGradient>
    <radialGradient
       inkscape:collect="always"
       xlink:href="#linearGradient887"
       id="radialGradient889"
       cx="103.70056"
       cy="231.09332"
       fx="103.70056"
       fy="231.09332"
       r="67.886459"
       gradientTransform="matrix(1.007874,-0.02362205,0.00498141,0.21254006,-4.0996462,163.73771)"
       gradientUnits="userSpaceOnUse" />
    <radialGradient
       inkscape:collect="always"
       xlink:href="#linearGradient927"
       id="radialGradient929"
       cx="117.11548"
       cy="180.40996"
       fx="117.11548"
       fy="180.40996"
       r="5.2106194"
       gradientTransform="matrix(1,0,0,0.94870675,-0.80180816,6.0465786)"
       gradientUnits="userSpaceOnUse" />
    <radialGradient
       inkscape:collect="always"
       xlink:href="#linearGradient927"
       id="radialGradient933"
       gradientUnits="userSpaceOnUse"
       gradientTransform="matrix(1,0,0,0.94870675,-36.348657,-10.524132)"
       cx="117.11548"
       cy="180.40996"
       fx="117.11548"
       fy="180.40996"
       r="5.2106194" />
    <radialGradient
       inkscape:collect="always"
       xlink:href="#linearGradient927"
       id="radialGradient937"
       gradientUnits="userSpaceOnUse"
       gradientTransform="matrix(1,0,0,0.94870675,-23.519719,16.73736)"
       cx="117.11548"
       cy="180.40996"
       fx="117.11548"
       fy="180.40996"
       r="5.2106194" />
    <radialGradient
       inkscape:collect="always"
       xlink:href="#linearGradient927"
       id="radialGradient941"
       gradientUnits="userSpaceOnUse"
       gradientTransform="matrix(1,0,0,0.94870675,-15.234363,-28.965729)"
       cx="117.11548"
       cy="180.40996"
       fx="117.11548"
       fy="180.40996"
       r="5.2106194" />
  </defs>
  <sodipodi:namedview
     id="base"
     pagecolor="#ffffff"
     bordercolor="#666666"
     borderopacity="1.0"
     inkscape:pageopacity="0.0"
     inkscape:pageshadow="2"
     inkscape:zoom="0.49497475"
     inkscape:cx="-513.74044"
     inkscape:cy="767.35615"
     inkscape:document-units="mm"
     inkscape:current-layer="layer1"
     showgrid="false"
     inkscape:window-width="1920"
     inkscape:window-height="1025"
     inkscape:window-x="0"
     inkscape:window-y="0"
     inkscape:window-maximized="1"
     inkscape:snap-intersection-paths="false"
     inkscape:object-paths="false"
     inkscape:object-nodes="false" />
  <metadata
     id="metadata5">
    <rdf:RDF>
      <cc:Work
         rdf:about="">
        <dc:format>image/svg+xml</dc:format>
        <dc:type
           rdf:resource="http://purl.org/dc/dcmitype/StillImage" />
        <dc:title></dc:title>
      </cc:Work>
    </rdf:RDF>
  </metadata>
  <g
     inkscape:label="Layer 1"
     inkscape:groupmode="layer"
     id="layer1"
     transform="translate(0,-80)">
    <g
       id="g957"
       transform="matrix(1.5867769,0,0,1.5867769,-55.542703,-73.342489)">
      <path
         sodipodi:nodetypes="csc"
         inkscape:connector-curvature="0"
         id="path913"
         d="m 60.411692,218.60427 c 14.74886,13.3467 31.086357,14.06728 43.154048,14.02153 23.99493,-0.091 38.08626,-14.09644 38.08626,-14.09644"
         style="fill:#c0bec3;fill-opacity:0.83921569;stroke:#060606;stroke-width:0.26499999;stroke-linecap:butt;stroke-linejoin:miter;stroke-miterlimit:4;stroke-dasharray:none;stroke-opacity:0" />
      <ellipse
         ry="11.22532"
         rx="64.679222"
         cy="209.87015"
         cx="101.0341"
         id="path879"
         style="opacity:1;fill:url(#radialGradient889);fill-opacity:1;fill-rule:nonzero;stroke:#ffffff;stroke-width:0;stroke-linecap:round;stroke-linejoin:round;stroke-miterlimit:4;stroke-dasharray:none;stroke-dashoffset:0;stroke-opacity:1;paint-order:normal" />
      <g
         transform="rotate(7.8783498,436.34609,184.26112)"
         id="g877">
        <path
           style="opacity:0.83699999;fill:#ffcc00;fill-opacity:0.83529412;fill-rule:nonzero;stroke:#ffffff;stroke-width:0;stroke-linecap:round;stroke-linejoin:round;stroke-miterlimit:4;stroke-dasharray:none;stroke-dashoffset:0;stroke-opacity:1;paint-order:normal"
           id="path825"
           d="m 117.19978,146.31837 c -2.64178,1.32203 -12.82708,7.18533 -1.49333,0.74978 -3.40393,2.39241 -6.59265,5.0684 -9.94732,7.53013 -3.37472,2.2047 -6.837178,4.25262 -10.062642,6.67714 -2.64156,2.08005 -4.769889,4.69074 -6.828768,7.32403 -1.617978,2.1479 -3.176601,4.34445 -4.513646,6.67936 -1.369161,2.34892 -2.353713,4.88645 -3.09077,7.49614 -0.620223,2.55345 -0.876438,4.08954 0.426871,6.44622 1.656447,2.3152 4.268694,3.36318 6.835309,4.34092 4.006588,1.43649 8.086021,2.66922 12.160746,3.8965 3.91029,1.32388 7.84919,2.55571 11.77508,3.82982 3.67547,1.07224 7.16194,2.67175 10.46509,4.59176 2.42412,1.48696 4.61665,3.30731 6.51825,5.4173 1.62861,1.79326 2.33844,3.96938 2.66586,6.31774 0.39623,3.04697 -0.18577,6.02346 -1.06546,8.92736 -1.08471,3.28034 -3.22555,5.91604 -5.66722,8.28565 -5.21058,4.55228 -11.42687,7.7493 -17.39308,11.15668 -4.63119,2.47475 -9.331934,4.80574 -14.188078,6.80506 -4.17667,1.74688 -8.594127,2.69035 -13.10131,2.936 -3.157455,0.0876 -6.217689,-0.58578 -9.197771,-1.5627 -1.748168,-0.65579 -3.451558,-1.47708 -4.822015,-2.76218 -0.427239,-0.43696 -0.680776,-0.977 -0.930931,-1.52325 0,0 6.922706,-3.89092 6.922706,-3.89092 v 0 c 0.184632,0.45843 0.374431,0.89898 0.736121,1.25298 1.303737,1.17497 2.907221,1.94189 4.548032,2.53433 2.905109,0.91491 5.879811,1.53336 8.946724,1.38404 4.433509,-0.32887 8.764039,-1.31139 12.861808,-3.07108 4.848194,-2.0399 9.549834,-4.39325 14.173844,-6.89922 -1.5015,0.88645 -2.9939,1.78848 -4.50449,2.65934 -0.66671,0.38436 1.32068,-0.79066 1.97256,-1.19967 2.37419,-1.48966 4.69723,-3.08536 6.8436,-4.89031 2.44783,-2.23349 4.6045,-4.75632 5.78065,-7.90424 0.91142,-2.78311 1.54355,-5.6439 1.16035,-8.59055 -0.29436,-2.19765 -0.88586,-4.24009 -2.43235,-5.91172 -1.84742,-2.0403 -3.96029,-3.82691 -6.31855,-5.25576 -3.26531,-1.87463 -6.7013,-3.44009 -10.32622,-4.4885 -3.92556,-1.26388 -7.857151,-2.50781 -11.767121,-3.82043 -4.088249,-1.26836 -8.193172,-2.49152 -12.231325,-3.91364 -2.740205,-1.05949 -5.490739,-2.23776 -7.220035,-4.74234 -1.417902,-2.56223 -1.334984,-4.18887 -0.668335,-7.00167 0.704776,-2.6548 1.644904,-5.25403 2.993179,-7.65586 1.288753,-2.41089 2.906799,-4.61646 4.522089,-6.81687 2.074346,-2.66269 4.166359,-5.34223 6.772671,-7.51621 3.219098,-2.4862 6.679036,-4.59167 10.137765,-6.72437 3.354542,-2.43169 6.547892,-5.06063 9.852512,-7.55687 4.92804,-2.88935 9.81672,-5.85501 14.88799,-8.49056 0,0 -6.18904,4.95064 -6.18904,4.95064 z"
           inkscape:connector-curvature="0" />
        <path
           style="opacity:0.83699999;fill:#ffcc00;fill-opacity:0.83529412;fill-rule:nonzero;stroke:#ffffff;stroke-width:0;stroke-linecap:round;stroke-linejoin:round;stroke-miterlimit:4;stroke-dasharray:none;stroke-dashoffset:0;stroke-opacity:1;paint-order:normal"
           id="path827"
           d="m 65.540357,250.63596 c 0.69256,-1.8247 1.69676,-3.45293 2.869433,-5.00203 1.803538,-2.31808 4.059981,-4.2098 6.493666,-5.82953 4.781817,-2.97579 8.788958,-5.40786 14.183042,-6.2379 2.843837,-0.42703 5.674598,-0.28675 8.509,0.0847 2.472922,0.39189 4.830802,1.25804 7.045252,2.40683 2.07244,1.13934 4.19422,2.16554 6.35909,3.11513 2.40396,1.00897 4.84946,1.88814 7.23113,2.95264 2.33657,1.10432 4.61781,2.33553 6.88992,3.56921 1.46904,0.87315 3.09687,1.21161 4.77389,1.36802 1.52233,0.0347 3.02645,0.0818 4.53966,0.25124 1.99469,0.12128 3.87912,-0.23202 5.67091,-1.10041 3.34509,-1.99148 -2.28772,1.37188 -4.98619,2.77443 -0.32199,0.16736 0.57272,-0.44667 0.84358,-0.68818 0.83001,-0.74004 1.46391,-1.6009 2.09888,-2.50558 0,0 7.185,-3.1348 7.185,-3.1348 v 0 c -0.30015,0.45299 -0.9741,1.49031 -1.30521,1.9057 -2.51046,3.14957 -6.50788,4.66323 -9.99396,6.51413 -1.91115,0.71483 -3.89337,1.00122 -5.93472,0.80225 -1.51943,-0.13699 -3.04378,-0.10098 -4.56231,-0.25193 -1.73152,-0.24819 -3.39159,-0.71982 -4.89394,-1.64984 -2.24256,-1.23277 -4.47947,-2.49296 -6.81645,-3.53844 -2.39144,-1.04086 -4.8537,-1.89253 -7.24027,-2.9444 -2.17819,-0.95417 -4.3127,-1.98711 -6.392999,-3.14155 -2.178445,-1.05606 -4.468622,-1.87548 -6.879696,-2.19892 -2.792696,-0.34078 -5.590942,-0.37724 -8.375542,0.10586 -1.151718,0.22376 -1.379344,0.2369 -2.493303,0.57441 -2.795093,0.84686 -9.181828,4.1852 1.804559,-1.85336 -2.470902,1.4878 -4.733118,3.32415 -6.563556,5.56663 -1.16795,1.46372 -2.240822,2.97677 -2.844864,4.77068 0,0 -7.214002,3.31504 -7.214002,3.31504 z"
           inkscape:connector-curvature="0" />
        <path
           style="opacity:0.83699999;fill:#ff8300;fill-opacity:0.83529412;fill-rule:nonzero;stroke:#ffffff;stroke-width:0;stroke-linecap:round;stroke-linejoin:round;stroke-miterlimit:4;stroke-dasharray:none;stroke-dashoffset:0;stroke-opacity:1;paint-order:normal"
           id="path837"
           d="m 108.63709,141.88449 c -1.17217,1.53446 -2.34982,3.06558 -3.516,4.6052 -1.32651,1.75004 -2.80904,3.3587 -4.38928,4.87894 -1.396004,1.24396 -2.923854,2.32549 -4.363362,3.51768 -1.220017,1.05057 -2.147207,2.37745 -3.089598,3.66932 -0.904229,1.27934 -1.619403,2.66894 -2.328053,4.06119 -0.748458,1.54177 -1.46708,3.08914 -1.953627,4.7349 -0.39851,1.48852 -0.449779,3.03187 -0.491247,4.56274 -0.0095,1.26726 -0.0011,2.53451 0.0059,3.80177 0.04056,1.44316 0.619559,2.76965 1.143141,4.08833 0.629618,1.43467 1.341598,2.82952 2.071396,4.21552 0.838877,1.48349 1.985997,2.65967 3.275788,3.74837 1.420651,1.15384 3.150023,1.83215 4.905869,2.28747 1.690523,0.3933 3.435543,0.28645 5.145643,0.49444 1.71986,0.21325 3.39136,0.74968 5.04922,1.24625 1.63943,0.56965 3.25393,1.20445 4.83215,1.92766 1.50207,0.61676 2.88665,1.40675 4.26245,2.25802 1.07503,0.92418 1.94907,2.0477 2.61502,3.29416 0.66305,1.33963 0.79086,2.8178 0.87817,4.2852 0.13336,1.5069 -0.1549,2.95788 -0.67206,4.36343 -0.49575,1.41728 -1.3527,2.61364 -2.32002,3.74096 -1.23269,1.4158 -2.54384,2.75772 -3.99632,3.9481 -3.3899,2.67915 -7.28786,4.6127 -11.01987,6.75323 -1.62857,0.86771 -3.34734,1.60815 -5.081926,2.24314 -2.092738,0.80919 -4.219157,1.52819 -6.360385,2.19868 -1.95883,0.61276 -3.728093,1.65818 -5.491586,2.68382 11.505385,-7.1832 4.788376,-2.58149 2.257875,-0.66996 -1.492893,1.15114 -2.830126,2.48748 -4.15004,3.82912 -1.200338,1.25445 -2.07496,2.7369 -2.897928,4.25085 -0.800997,1.44076 -1.191623,3.02197 -1.256536,4.6594 0.0659,1.59797 0.693386,3.05811 1.303036,4.50893 0.579173,1.51374 1.512128,2.70935 2.676449,3.80841 1.333351,1.20112 2.929797,2.02446 4.500731,2.86523 2.008952,0.97508 4.254172,1.12874 6.447155,1.26424 2.434498,0.18293 4.825015,0.1278 7.200955,-0.44165 2.20911,-0.5335 4.37969,-1.24118 6.51616,-2.0153 2.13876,-0.71288 4.28882,-1.39568 6.4095,-2.16159 0.3538,-0.13874 0.70933,-0.27317 1.06142,-0.41623 0.97035,-0.39426 1.18999,-0.47934 2.11098,-0.99617 0.33649,-0.18882 1.32911,-0.78425 0.99234,-0.59594 -5.65769,3.16362 -7.57889,4.49949 -4.79671,2.61602 1.3536,-0.94231 2.6403,-1.97768 3.95042,-2.97939 1.45032,-1.11607 2.81061,-2.34647 4.05614,-3.68616 1.40735,-1.56009 2.76578,-3.16209 4.07936,-4.80172 1.10887,-1.4246 2.19249,-2.86775 3.37488,-4.23273 1.06315,-1.08761 2.0471,-2.24743 3.053,-3.38702 0.11573,-0.13029 0.23147,-0.26058 0.34721,-0.39087 0,0 7.3137,-3.0714 7.3137,-3.0714 v 0 c -0.12108,0.13088 -0.24215,0.26176 -0.36323,0.39264 -1.03239,1.13455 -2.00401,2.32591 -3.09143,3.40827 -1.24277,1.30705 -2.29333,2.77301 -3.4106,4.18635 -1.28407,1.67495 -2.66861,3.27152 -4.07612,4.84328 -1.15526,1.42361 -2.53868,2.64263 -3.94844,3.81137 -1.32238,1.02742 -2.65148,2.03858 -3.98688,3.04556 -4.03898,2.73891 -8.24209,5.39213 -12.84418,7.072 -2.13041,0.73788 -4.27361,1.43866 -6.40941,2.16076 -2.15952,0.74173 -4.337411,1.45787 -6.573619,1.93166 -2.425951,0.45387 -4.868182,0.4399 -7.326471,0.26126 -2.285659,-0.18311 -4.603763,-0.42589 -6.666137,-1.51398 -1.631863,-0.87348 -3.262344,-1.769 -4.631185,-3.03495 -1.227076,-1.1844 -2.217719,-2.47715 -2.841723,-4.08295 -0.6639,-1.54393 -1.306816,-3.10415 -1.462622,-4.79644 -0.01254,-1.73677 0.33123,-3.443 1.101016,-5.00962 0.851207,-1.54487 1.639205,-3.1227 2.834611,-4.44507 1.277951,-1.39566 2.654126,-2.71351 4.097777,-3.93545 3.466938,-2.77881 7.213923,-5.11588 11.160376,-7.19757 1.77923,-1.00832 3.596352,-1.9637 5.571342,-2.53399 2.134825,-0.69181 4.257295,-1.42229 6.345055,-2.24661 1.71688,-0.69861 3.43396,-1.42177 5.04418,-2.34514 -11.9435,6.92909 -4.91836,3.09759 -2.43319,1.10256 1.53235,-1.04756 2.82361,-2.41419 4.04088,-3.80785 0.99229,-1.014 1.88317,-2.1347 2.41696,-3.46221 0.53155,-1.31252 0.96606,-2.62349 0.82701,-4.06921 -0.0604,-1.35303 -0.13601,-2.72843 -0.71984,-3.97575 -0.60397,-1.1234 -1.3926,-2.15278 -2.40017,-2.94595 -1.33427,-0.85229 -2.7311,-1.5523 -4.18688,-2.17742 -1.55766,-0.68994 -3.13829,-1.32524 -4.76351,-1.84004 -1.63712,-0.46005 -3.26974,-0.99939 -4.976072,-1.12244 -1.744745,-0.13861 -3.513283,-0.15313 -5.214975,-0.61581 -1.828389,-0.56473 -3.606765,-1.32774 -5.082539,-2.57474 -1.354164,-1.16407 -2.562974,-2.4314 -3.458345,-3.9932 -0.727737,-1.41654 -1.460754,-2.8304 -2.103885,-4.28791 -0.562904,-1.40449 -1.178787,-2.80829 -1.309505,-4.33594 -0.0035,-1.27674 -0.0164,-2.55362 0.007,-3.83024 0.0226,-1.58903 0.07552,-3.18762 0.412247,-4.74671 0.454644,-1.70048 1.143087,-3.28956 1.886656,-4.88146 0.739381,-1.3993 1.386914,-2.84536 2.278211,-4.16098 0.934789,-1.33975 1.884963,-2.67259 3.017692,-3.85341 1.42603,-1.22419 2.934237,-2.33996 4.424407,-3.48382 1.557108,-1.52073 3.112895,-3.02626 4.440957,-4.76261 1.124924,-1.54585 2.361431,-3.00404 3.407861,-4.60703 0,0 7.30519,-3.1038 7.30519,-3.1038 z"
           inkscape:connector-curvature="0" />
        <path
           style="opacity:0.83699999;fill:#ff7700;fill-opacity:0.83529412;fill-rule:nonzero;stroke:#ffffff;stroke-width:0;stroke-linecap:round;stroke-linejoin:round;stroke-miterlimit:4;stroke-dasharray:none;stroke-dashoffset:0;stroke-opacity:1;paint-order:normal"
           id="path839"
           d="m 83.954735,152.3716 c 1.947418,1.10653 3.786331,2.38593 5.70978,3.53058 2.691553,1.62993 5.655826,2.74656 8.550108,3.95866 2.929197,1.14179 5.692807,2.65046 8.506007,4.04243 2.56922,1.34805 5.2552,2.45587 7.89422,3.65798 1.95064,0.98956 3.7159,2.21567 5.11439,3.90172 1.20746,1.65209 2.09654,3.50028 2.74032,5.43571 0.55864,1.85267 0.79309,3.77405 0.58394,5.69678 -0.37385,2.42556 -1.84337,4.23242 -3.46648,5.97003 -2.00002,1.96385 -4.32735,3.54144 -6.63125,5.1198 -4.65571,3.0526 -9.57608,5.67094 -14.431156,8.38798 -2.850544,1.47368 -5.74767,2.84661 -8.599418,4.31826 -2.556579,1.38288 -4.156673,2.2624 3.945834,-2.30066 0.486265,-0.27385 -0.959816,0.56969 -1.437701,0.85791 -1.528958,0.92215 -3.060909,1.83444 -4.604932,2.73135 -18.946492,10.91927 -5.085572,2.916 -2.962659,1.73586 0.463693,-0.25776 -0.910466,0.54519 -1.357045,0.83158 -1.138185,0.72993 -2.202535,1.54923 -3.273777,2.37166 -1.644031,1.33898 -3.173323,2.81052 -4.64334,4.33639 -1.185978,1.28917 -2.049245,2.77923 -2.619933,4.42695 -0.46618,1.43059 -0.491768,2.83463 -0.160848,4.28529 0.438187,1.51882 1.111766,2.95316 1.854774,4.34381 0.977321,1.53916 2.275594,2.82051 3.746103,3.88331 1.821402,1.27222 3.935902,1.97529 5.971487,2.81484 2.093868,0.83215 4.216477,1.52669 6.395157,2.0938 2.335807,0.58521 4.743698,0.71484 7.139432,0.80392 2.557192,0.0668 5.115702,0.0538 7.673532,0.0491 2.67587,0.0507 5.34237,-0.0217 8.00035,-0.34106 2.60976,-0.50208 5.2301,-0.91149 7.87893,-1.1301 1.97278,-0.14211 3.95078,-0.16176 5.92766,-0.17336 1.65143,0.0375 3.28475,0.0276 4.92265,-0.1837 1.44628,-0.43805 2.91621,-0.85866 4.30089,-1.47185 1.53582,-0.53664 2.9083,-1.41041 4.33032,-2.17887 -11.62579,6.77779 -5.3396,3.46218 -3.04684,1.15943 0.94561,-1.13713 1.75419,-2.39571 2.36872,-3.7414 0.29761,-0.82193 0.65989,-1.6235 0.86764,-2.47445 0.086,-0.43246 0.0512,-0.22145 0.10682,-0.63263 0,0 7.14092,-3.53267 7.14092,-3.53267 v 0 c -0.0473,0.45496 -0.0211,0.21899 -0.0793,0.70781 -0.1846,0.91525 -0.51737,1.75639 -0.83495,2.63161 -0.60738,1.42679 -1.41519,2.72629 -2.2905,4.00522 -0.20165,0.22172 -0.87735,0.97432 -1.10045,1.18148 -2.65328,2.46363 -6.82225,3.13247 -9.27056,5.64474 -1.42119,0.79321 -2.85885,1.55444 -4.39263,2.11195 -1.43956,0.5369 -2.91217,1.05835 -4.43257,1.29951 -1.6515,0.15826 -3.30583,0.10093 -4.96317,0.10882 -1.94982,0.008 -3.90148,0.0344 -5.84581,0.19435 -2.63123,0.24783 -5.2293,0.69936 -7.83725,1.11893 -2.68501,0.26221 -5.37512,0.33866 -8.072586,0.29022 -2.564733,5.3e-4 -5.130057,0.006 -7.693845,-0.0754 -2.437025,-0.11162 -4.88061,-0.30022 -7.247327,-0.93257 -2.202735,-0.57672 -4.337746,-1.33946 -6.453322,-2.18104 -2.095926,-0.85511 -4.250328,-1.61934 -6.098191,-2.96558 -1.537007,-1.16944 -2.920005,-2.51239 -3.947361,-4.16349 -0.788305,-1.44511 -1.474668,-2.94547 -1.973987,-4.51629 -0.392142,-1.62655 -0.472411,-3.03555 -0.01916,-4.67395 0.526174,-1.75447 1.325621,-3.34201 2.498164,-4.76264 1.48345,-1.55571 3.010755,-3.06141 4.641485,-4.46419 1.087411,-0.83483 2.15075,-1.71225 3.296391,-2.46782 4.037779,-2.66298 16.399494,-9.45161 4.345032,-2.59756 5.124643,-2.97213 10.131099,-6.15457 15.372421,-8.92279 2.842538,-1.46951 5.760876,-2.78478 8.567306,-4.32387 2.34912,-1.30317 8.05166,-4.57759 -2.52987,1.57081 -0.42334,0.24598 0.84459,-0.49557 1.26386,-0.74842 0.41504,-0.2503 0.82677,-0.50604 1.23899,-0.76097 0.38948,-0.24087 0.7774,-0.48427 1.1661,-0.72641 2.28866,-1.58485 4.64303,-3.09643 6.704,-4.98184 1.59051,-1.58836 3.09687,-3.21802 3.58482,-5.48535 0.32765,-1.80707 0.088,-3.62485 -0.39402,-5.38944 -0.59263,-1.84674 -1.44562,-3.61122 -2.61631,-5.1655 -1.31941,-1.59032 -3.02304,-2.72529 -4.86723,-3.64121 -2.63465,-1.21107 -5.29933,-2.36209 -7.87223,-3.70236 -2.795592,-1.39482 -5.562692,-2.86023 -8.474172,-4.00586 -2.924548,-1.24267 -5.919377,-2.37677 -8.648303,-4.0231 -1.93322,-1.15517 -3.795278,-2.4337 -5.8107,-3.44769 0,0 6.652594,-4.32446 6.652594,-4.32446 z"
           inkscape:connector-curvature="0" />
        <path
           style="opacity:0.83699999;fill:#fbf300;fill-opacity:0.83529412;fill-rule:nonzero;stroke:#ffffff;stroke-width:0;stroke-linecap:round;stroke-linejoin:round;stroke-miterlimit:4;stroke-dasharray:none;stroke-dashoffset:0;stroke-opacity:1;paint-order:normal"
           id="path841"
           d="m 105.91821,183.54217 c -2.33333,0.82178 -4.60533,1.82542 -6.877796,2.80503 -3.119702,1.35223 -6.316646,2.53339 -9.308809,4.15664 1.75999,-1.00828 3.508957,-2.03606 5.279975,-3.02485 0.475925,-0.26572 -0.929984,0.56884 -1.393822,0.85514 -2.203667,1.36019 -4.438052,2.66488 -6.653297,4.00571 -3.204337,1.96903 -6.115476,4.32572 -8.696905,7.05287 -1.676482,1.73924 -2.744226,3.58456 -3.33634,5.91213 -0.315714,1.48646 -0.487124,2.96597 0.0389,4.41125 1.044265,1.73839 3.181402,2.31688 4.977947,2.9695 2.925159,0.99884 6.026618,1.13567 9.08639,1.26701 4.055464,0.024 8.087746,-0.46861 12.059117,-1.25666 3.81425,-0.74594 7.64704,-1.40665 11.44615,-2.22704 3.20722,-0.68045 6.46806,-1.03151 9.73729,-1.21849 2.43059,-0.18698 4.84033,0.28639 7.17637,0.91455 1.87659,0.41049 3.60242,1.22208 5.23515,2.21139 1.22023,0.92878 1.81924,1.39863 1.42425,3.01053 -0.13413,0.23421 -0.2429,0.48491 -0.4024,0.70264 -1.03835,1.41741 -3.35346,3.03351 -4.75768,4.11456 -5.24324,4.13479 -11.20029,7.27697 -17.29515,9.96612 -4.19244,1.72208 -8.58118,2.89147 -12.97598,3.96458 -4.378077,1.07799 -8.83488,1.79112 -13.211337,2.86989 -4.122317,0.92873 -8.135617,2.23767 -12.076702,3.74997 -0.732121,0.30092 -2.207895,0.89473 -2.943506,1.24508 -0.434527,0.20695 -1.696389,0.9093 -1.280935,0.66632 10.348037,-6.05209 5.384374,-3.15865 3.180025,-1.4927 -2.143647,1.77764 -4.199721,3.67775 -6.065967,5.74623 -1.561955,1.76684 -2.280473,3.61258 -2.459075,5.93578 -0.07832,1.96102 0.854416,3.54523 2.016662,5.03954 1.829099,2.14296 4.442259,2.72393 7.095567,3.17864 4.464629,0.35147 8.962874,-0.0379 13.406588,-0.50351 5.05139,-0.63727 10.067988,-1.51801 15.1065,-2.2447 4.85834,-0.76258 9.68394,-1.70122 14.48701,-2.7555 4.26676,-0.84803 8.54311,-1.64145 12.82118,-2.42862 3.2513,-0.54147 6.42674,-1.39349 9.6128,-2.21723 2.62838,-0.93454 6.99571,-3.38414 -4.57108,2.80853 -0.17701,0.0948 0.31303,-0.25414 0.44722,-0.4035 0.33142,-0.36888 0.35792,-0.53829 0.55082,-0.99186 0.28347,-0.98936 0.29349,-2.02503 0.29331,-3.04596 0,0 7.07071,-3.59718 7.07071,-3.59718 v 0 c -0.0135,1.09125 -0.0202,2.19026 -0.20506,3.26879 -0.96453,4.14696 -6.01868,5.52851 -9.80275,6.71951 -3.15183,0.79192 -6.31136,1.53539 -9.51814,2.07784 -4.27479,0.77203 -8.53977,1.59433 -12.79993,2.44375 -4.80035,1.02065 -9.62476,1.9195 -14.473249,2.68077 -5.044442,0.75068 -10.074719,1.60633 -15.13764,2.22739 -4.512511,0.45818 -9.087101,0.85053 -13.613815,0.38827 -2.923416,-0.54438 -5.522764,-1.22726 -7.520535,-3.58642 -1.259793,-1.64164 -2.288419,-3.40144 -2.289747,-5.53686 0.131038,-2.45235 0.680464,-4.48919 2.288503,-6.41853 1.806147,-2.15474 3.933,-4.02463 6.027701,-5.89292 4.290964,-3.45538 9.216344,-6.11648 14.35841,-8.07246 3.956265,-1.45386 7.979762,-2.70542 12.092411,-3.64195 4.376552,-1.02472 8.816101,-1.75806 13.177961,-2.8523 4.37233,-1.10984 8.74314,-2.29773 12.89994,-4.07531 0.70824,-0.31942 1.42095,-0.62911 2.12472,-0.95826 0.68625,-0.32095 2.67252,-1.41615 2.04492,-0.99183 -1.49076,1.0079 -3.09424,1.83811 -4.64553,2.7501 -0.57651,0.33892 1.15961,-0.6677 1.72114,-1.03089 0.52372,-0.33873 1.03169,-0.70183 1.53254,-1.07354 0.44749,-0.3321 0.87419,-0.69134 1.31129,-1.03701 1.09593,-0.83099 2.16839,-1.67634 3.22315,-2.55874 0.0157,-0.0131 1.42201,-1.18177 1.51576,-1.27517 0.16523,-0.16462 0.29545,-0.36099 0.44319,-0.54149 0.7354,-1.06938 0.0124,-1.37938 -0.85873,-2.03875 -1.58114,-0.93191 -3.24213,-1.67421 -5.04688,-2.06478 -2.29812,-0.55848 -4.64508,-0.94154 -7.01804,-0.73022 -3.22479,0.19698 -6.43865,0.56137 -9.59794,1.25773 -3.80816,0.77788 -7.632334,1.47798 -11.44938,2.21069 -4.016361,0.72857 -8.088521,1.17903 -12.176508,1.12206 -3.13835,-0.13619 -6.309402,-0.32808 -9.289418,-1.41608 -2.033767,-0.74725 -4.283194,-1.49624 -5.420542,-3.4868 -0.645652,-1.63059 -0.541549,-3.14823 -0.209058,-4.85361 0.548177,-2.46532 1.48191,-4.45637 3.24394,-6.31542 2.589932,-2.79303 5.473205,-5.2511 8.708599,-7.28124 5.262448,-3.26097 10.627651,-6.36317 15.982494,-9.46742 3.035531,-1.53364 6.220023,-2.73912 9.334693,-4.10016 2.34096,-0.99639 4.65648,-2.09667 7.09993,-2.8191 0,0 -6.30155,4.81853 -6.30155,4.81853 z"
           inkscape:connector-curvature="0" />
        <path
           style="opacity:0.83699999;fill:#ffde8d;fill-opacity:0.83529412;fill-rule:nonzero;stroke:#ffffff;stroke-width:0;stroke-linecap:round;stroke-linejoin:round;stroke-miterlimit:4;stroke-dasharray:none;stroke-dashoffset:0;stroke-opacity:1;paint-order:normal"
           id="path845"
           d="m 74.335663,177.27723 c 2.470904,0.58271 5.022106,0.69155 7.548734,0.80553 3.379954,-0.007 6.729825,0.18694 10.079964,0.63018 3.638304,0.42745 7.262685,0.97149 10.909699,1.32236 3.42364,0.18918 6.81842,0.62424 10.20674,1.13079 2.88846,0.57051 5.71963,1.34561 8.43669,2.48163 1.8313,0.84621 3.54125,1.92818 5.12554,3.17257 1.2669,0.98244 2.15407,2.20836 2.67809,3.71123 0.50135,1.60471 0.17566,3.13849 -0.2813,4.70476 -0.80622,2.6489 -2.4191,4.82455 -4.15744,6.9286 -2.58188,2.79164 -5.61478,5.12511 -8.67748,7.36138 -2.6378,1.91939 -5.23484,3.89225 -7.89135,5.7862 -2.70896,1.86801 -5.39977,3.76507 -8.16046,5.55647 -2.048438,1.27038 -3.984334,2.69827 -5.867595,4.19883 -1.619203,1.25889 -3.224581,2.53568 -4.892911,3.72925 -2.058799,1.37505 -4.093263,2.75942 -5.936586,4.4162 -1.590254,1.52801 -2.977141,3.24808 -4.180302,5.09269 -0.879219,1.33898 -1.699919,2.71989 -2.404386,4.15887 -0.693951,1.40664 -0.966131,2.93954 -1.111654,4.48571 -0.145452,1.37284 -0.08019,2.72582 0.385505,4.02895 0.448866,1.30999 1.289945,2.34997 2.346251,3.21756 1.43999,1.16592 3.115773,1.8131 4.90995,2.18154 2.373934,0.41245 4.761759,0.66249 7.166462,0.79608 3.116418,0.13252 6.236538,0.13471 9.355198,0.13394 2.966718,-0.0502 5.941868,-0.21485 8.897698,-0.48538 3.15407,-0.264 6.25532,-0.90354 9.39705,-1.27922 2.6446,-0.19122 5.24489,-0.74414 7.81042,-1.39207 2.60572,-0.71932 5.15401,-1.63329 7.71058,-2.50954 2.08286,-0.70078 4.23194,-1.23135 6.27656,-2.03938 0.34446,-0.1555 1.10154,-0.48939 1.4523,-0.6763 0.20139,-0.10732 0.78756,-0.46149 0.58938,-0.34833 -10.83657,6.1874 -7.49926,4.53636 -5.30311,2.92306 0.79279,-0.6426 1.55721,-1.32983 2.20185,-2.12305 0.48256,-0.58319 0.65975,-1.28584 0.73282,-2.02168 0,0 7.12235,-3.55755 7.12235,-3.55755 v 0 c -0.053,0.84359 -0.13543,1.68699 -0.5601,2.43971 -0.61323,0.86567 -1.33073,1.62021 -2.1373,2.31242 -3.01393,2.57511 -6.6464,4.40273 -10.30398,5.90086 -2.06711,0.6916 -4.15906,1.30649 -6.2309,1.9838 -2.5645,0.87569 -5.12581,1.77858 -7.75194,2.45389 -2.5795,0.61568 -5.18784,1.10233 -7.83688,1.29622 -3.14296,0.39531 -6.25284,1.03203 -9.41612,1.25775 -2.969776,0.23589 -5.950802,0.44224 -8.930876,0.42562 -3.137826,-0.0139 -6.277644,-0.005 -9.412956,-0.14653 -2.441906,-0.15099 -4.873038,-0.41391 -7.277907,-0.87535 -1.888292,-0.46863 -3.645268,-1.23219 -5.167895,-2.46992 -1.111543,-0.99314 -2.052436,-2.13427 -2.554348,-3.56047 -0.530408,-1.39589 -0.68567,-2.8533 -0.535366,-4.34166 0.122899,-1.61935 0.338667,-3.24351 1.002461,-4.74337 0.667999,-1.48415 1.460709,-2.91453 2.3836,-4.25553 1.169307,-1.92389 2.580925,-3.68029 4.143806,-5.30088 1.803453,-1.71567 3.783272,-3.16371 5.875803,-4.51128 1.701803,-1.13429 3.26594,-2.45489 4.906973,-3.6743 1.894007,-1.5316 3.819014,-3.01623 5.893194,-4.30092 2.801689,-1.75016 5.483098,-3.68428 8.217371,-5.53631 2.6611,-1.88515 5.2599,-3.85208 7.88861,-5.78109 3.08234,-2.17649 6.09965,-4.49004 8.75289,-7.18188 1.70215,-2.0097 3.33897,-4.05938 4.17095,-6.6013 0.47475,-1.38181 0.84301,-2.79031 0.45802,-4.24103 -0.42775,-1.38039 -1.25791,-2.44937 -2.4109,-3.32894 -1.53553,-1.18976 -3.18746,-2.2269 -4.96116,-3.02662 -2.66162,-1.09104 -5.43637,-1.84934 -8.26551,-2.37006 -3.38716,-0.51668 -6.788457,-0.86377 -10.208173,-1.08517 -3.626262,-0.40029 -7.230686,-0.97736 -10.857253,-1.37813 -3.360764,-0.38293 -6.724735,-0.47628 -10.104702,-0.54099 -2.603707,-0.12828 -5.220973,-0.27585 -7.774647,-0.8363 0,0 6.529978,-4.50412 6.529978,-4.50412 z"
           inkscape:connector-curvature="0" />
        <path
           style="opacity:0.83699999;fill:#fff970;fill-opacity:0.83529412;fill-rule:nonzero;stroke:#ffffff;stroke-width:0;stroke-linecap:round;stroke-linejoin:round;stroke-miterlimit:4;stroke-dasharray:none;stroke-dashoffset:0;stroke-opacity:1;paint-order:normal"
           id="path849"
           d="m 80.422834,186.75197 c -0.542264,1.65019 -0.447379,3.2494 0.260032,4.81806 1.018635,1.73971 2.468121,3.1638 4.012883,4.43537 1.661422,1.44093 3.364785,2.83445 5.129352,4.14718 2.271123,1.60262 4.834321,2.64692 7.487611,3.41865 2.381191,0.6013 4.842868,0.72439 7.276708,0.97952 2.44073,0.34908 4.87158,0.7651 7.32061,1.0519 2.61548,0.27615 5.24676,0.32862 7.87436,0.3595 2.17112,0.20625 4.34487,0.53911 6.48907,0.94751 2.18261,0.32929 4.35331,0.72282 6.54933,0.95655 2.14774,0.11422 4.23144,0.67391 6.35294,0.98931 1.60032,0.24716 3.04767,0.85804 4.42208,1.68187 0.97784,0.40544 1.57061,1.15506 1.93035,2.12234 0.36821,1.11766 0.0454,2.08046 -0.48759,3.07292 -1.25229,1.87557 -3.10076,3.28544 -4.9163,4.58293 -5.20569,3.5226 -9.06327,5.39686 -14.64847,7.15982 -3.04223,0.91481 -6.08394,1.80059 -9.16944,2.56122 -3.27139,0.768 -6.53006,1.57942 -9.7819,2.42761 -3.12149,0.96685 -6.14357,2.18451 -9.070887,3.63123 -1.167342,0.62877 -8.920964,4.82239 3.387117,-1.98535 0.50812,-0.28105 -0.997599,0.59505 -1.485538,0.90985 -1.2276,0.792 -2.369883,1.68899 -3.520038,2.58657 -1.731737,1.40814 -3.298216,3.0032 -4.759944,4.68603 -1.21209,1.34249 -2.18558,2.86917 -2.89002,4.53154 -0.563194,1.55136 -0.731567,3.20123 -0.698822,4.84117 0.125666,1.69247 0.822814,3.13342 1.882393,4.42862 1.284939,1.49137 3.105645,2.21894 4.958358,2.72288 2.637113,0.54764 5.343075,0.57894 8.025411,0.62252 3.16905,0.0752 6.32282,-0.42822 9.43899,-0.95328 3.69651,-0.5854 7.3739,-1.27463 11.06447,-1.89771 3.78553,-0.62165 7.57023,-1.24653 11.34343,-1.94152 3.11787,-0.65306 6.17644,-1.55347 9.26707,-2.31746 2.70415,-0.66016 5.37662,-1.46818 7.9811,-2.45102 1.66574,-0.67998 3.33996,-1.2907 4.95912,-2.07221 3.08068,-1.78561 -3.84573,2.23062 -5.70198,3.25368 -0.17954,0.099 0.32679,-0.24885 0.47581,-0.38962 0.43809,-0.41388 0.79786,-0.90426 1.1494,-1.39023 0.46534,-0.68438 0.64987,-1.45698 0.73195,-2.26581 0.0749,-0.89029 -0.37878,-1.72844 -0.66718,-2.55275 -0.34552,-0.91003 -0.81849,-1.75745 -1.31316,-2.59234 0,0 6.84027,-3.95174 6.84027,-3.95174 v 0 c 0.50274,0.88202 1.01056,1.76354 1.39755,2.70463 0.34646,0.91026 0.84582,1.84868 0.85931,2.82975 -0.0408,0.91645 -0.16956,1.8109 -0.59127,2.6401 -1.99662,3.45057 -5.72527,5.01033 -9.36418,6.63864 -1.61053,0.74691 -3.30474,1.28813 -4.94484,1.96566 -2.62609,0.90771 -5.28646,1.71803 -7.99089,2.36018 -3.06972,0.79021 -6.13034,1.63215 -9.24437,2.23417 -3.78503,0.67435 -7.57662,1.3075 -11.36767,1.94606 -3.68946,0.60608 -7.36086,1.30786 -11.05432,1.88942 -3.16641,0.51689 -6.362743,1.00348 -9.581487,0.88155 -2.736172,-0.0602 -5.500915,-0.12539 -8.174373,-0.77056 -1.984044,-0.6162 -3.899694,-1.45795 -5.254136,-3.10009 -1.14409,-1.43452 -1.937086,-3.01536 -2.128684,-4.86476 -0.111609,-1.73086 0.06663,-3.47108 0.555075,-5.13957 0.647682,-1.74575 1.562881,-3.38418 2.806824,-4.78038 1.466623,-1.72683 3.018954,-3.3772 4.747136,-4.84875 1.169472,-0.91271 2.315236,-1.86659 3.550989,-2.69035 3.630557,-2.42015 7.478109,-4.52124 11.347776,-6.53399 2.97662,-1.41416 6.03952,-2.64094 9.2123,-3.54642 3.23758,-0.82748 6.48874,-1.59353 9.73502,-2.38466 3.0916,-0.7867 6.13591,-1.72603 9.19105,-2.64192 1.34001,-0.43831 2.68143,-0.87 3.98066,-1.42153 2.48185,-1.05356 7.82355,-4.12554 -2.72632,1.87676 1.80403,-1.19386 3.51631,-2.56003 4.93256,-4.20404 0.4738,-0.79385 1.01241,-1.4854 0.74423,-2.45356 -0.25111,-0.84102 -0.82877,-1.2909 -1.61113,-1.6625 -1.29299,-0.77067 -2.7101,-1.23933 -4.20088,-1.468 -2.1019,-0.35361 -4.18301,-0.85353 -6.31848,-0.97178 -2.2064,-0.2685 -4.39607,-0.6531 -6.59285,-0.98859 -2.11604,-0.36201 -4.23923,-0.76985 -6.38704,-0.86345 -2.63799,-0.0538 -5.27932,-0.13757 -7.90274,-0.43837 -2.45125,-0.3006 -4.88793,-0.70446 -7.336451,-1.02618 -2.458765,-0.25659 -4.946107,-0.41454 -7.328262,-1.1263 -2.708053,-0.86511 -5.344327,-1.95773 -7.676116,-3.61283 -1.784122,-1.31104 -3.465687,-2.75236 -5.151678,-4.18623 -1.620525,-1.36237 -3.155833,-2.86894 -4.224311,-4.71611 -0.790861,-1.68471 -1.046075,-3.43778 -0.561131,-5.26415 0,0 7.154183,-3.42716 7.154183,-3.42716 z"
           inkscape:connector-curvature="0" />
      </g>
      <ellipse
         style="opacity:1;fill:url(#radialGradient929);fill-opacity:1;fill-rule:nonzero;stroke:#060606;stroke-width:0.06941258;stroke-linecap:round;stroke-linejoin:round;stroke-miterlimit:4;stroke-dasharray:none;stroke-dashoffset:0;stroke-opacity:0;paint-order:normal"
         id="ellipse917"
         cx="116.31367"
         cy="177.20273"
         rx="5.1759133"
         ry="4.9086437" />
      <ellipse
         ry="4.9086437"
         rx="5.1759133"
         cy="160.632"
         cx="80.766823"
         id="ellipse931"
         style="opacity:1;fill:url(#radialGradient933);fill-opacity:1;fill-rule:nonzero;stroke:#060606;stroke-width:0.06941258;stroke-linecap:round;stroke-linejoin:round;stroke-miterlimit:4;stroke-dasharray:none;stroke-dashoffset:0;stroke-opacity:0;paint-order:normal" />
      <ellipse
         style="opacity:1;fill:url(#radialGradient937);fill-opacity:1;fill-rule:nonzero;stroke:#060606;stroke-width:0.06941258;stroke-linecap:round;stroke-linejoin:round;stroke-miterlimit:4;stroke-dasharray:none;stroke-dashoffset:0;stroke-opacity:0;paint-order:normal"
         id="ellipse935"
         cx="93.595764"
         cy="187.89351"
         rx="5.1759133"
         ry="4.9086437" />
      <ellipse
         ry="4.9086437"
         rx="5.1759133"
         cy="142.19041"
         cx="101.88112"
         id="ellipse939"
         style="opacity:1;fill:url(#radialGradient941);fill-opacity:1;fill-rule:nonzero;stroke:#060606;stroke-width:0.06941258;stroke-linecap:round;stroke-linejoin:round;stroke-miterlimit:4;stroke-dasharray:none;stroke-dashoffset:0;stroke-opacity:0;paint-order:normal" />
    </g>
  </g>
</svg>
