<?xml version="1.0" encoding="UTF-8" standalone="no"?>
<!-- Created with Inkscape (http://www.inkscape.org/) -->

<svg
   xmlns:dc="http://purl.org/dc/elements/1.1/"
   xmlns:cc="http://creativecommons.org/ns#"
   xmlns:rdf="http://www.w3.org/1999/02/22-rdf-syntax-ns#"
   xmlns:svg="http://www.w3.org/2000/svg"
   xmlns="http://www.w3.org/2000/svg"
   xmlns:sodipodi="http://sodipodi.sourceforge.net/DTD/sodipodi-0.dtd"
   xmlns:inkscape="http://www.inkscape.org/namespaces/inkscape"
   width="480"
   height="480"
   viewBox="0 0 126.99999 127"
   version="1.1"
   id="svg8"
   inkscape:version="0.92.3 (2405546, 2018-03-11)"
   sodipodi:docname="logo.svg">
  <defs
     id="defs2" />
  <sodipodi:namedview
     id="base"
     pagecolor="#ffffff"
     bordercolor="#666666"
     borderopacity="1.0"
     inkscape:pageopacity="0.0"
     inkscape:pageshadow="2"
     inkscape:zoom="0.98994949"
     inkscape:cx="255.65975"
     inkscape:cy="259.89681"
     inkscape:document-units="mm"
     inkscape:current-layer="layer1"
     showgrid="false"
     units="px"
     width="1080px"
     inkscape:object-nodes="false"
     inkscape:window-width="1920"
     inkscape:window-height="1025"
     inkscape:window-x="0"
     inkscape:window-y="0"
     inkscape:window-maximized="1"
     inkscape:pagecheckerboard="false" />
  <metadata
     id="metadata5">
    <rdf:RDF>
      <cc:Work
         rdf:about="">
        <dc:format>image/svg+xml</dc:format>
        <dc:type
           rdf:resource="http://purl.org/dc/dcmitype/StillImage" />
        <dc:title></dc:title>
      </cc:Work>
    </rdf:RDF>
  </metadata>
  <g
     inkscape:label="Layer 1"
     inkscape:groupmode="layer"
     id="layer1"
     transform="translate(0,-170)">
    <g
       id="g907"
       transform="matrix(1.2639076,0,0,1.2639076,-56.477245,-20.9794)">
      <g
         style="stroke:#000000;stroke-width:1.85208333;stroke-linecap:round;stroke-miterlimit:4;stroke-dasharray:none;stroke-opacity:1"
         id="g833">
        <path
           style="fill:none;stroke:#000000;stroke-width:1.85208333;stroke-linecap:round;stroke-linejoin:miter;stroke-miterlimit:4;stroke-dasharray:none;stroke-opacity:1"
           d="m 45.924107,179.63839 0.188987,38.55357 17.008929,-27.02529"
           id="path826"
           inkscape:connector-curvature="0" />
        <path
           style="fill:none;stroke:#000000;stroke-width:1.85208333;stroke-linecap:round;stroke-linejoin:miter;stroke-miterlimit:4;stroke-dasharray:none;stroke-opacity:1"
           d="m 54.050593,206.09672 11.90625,14.55209"
           id="path828"
           inkscape:connector-curvature="0" />
      </g>
      <path
         inkscape:connector-curvature="0"
         id="path835"
         d="m 68.980655,177.18155 v 42.14434"
         style="fill:none;stroke:#000000;stroke-width:1.85208333;stroke-linecap:round;stroke-linejoin:miter;stroke-miterlimit:4;stroke-dasharray:none;stroke-opacity:1" />
      <g
         style="stroke:#000000;stroke-width:1.85208333;stroke-linecap:round;stroke-miterlimit:4;stroke-dasharray:none;stroke-opacity:1"
         id="g885">
        <path
           inkscape:connector-curvature="0"
           id="path837"
           d="m 74.839284,205.34077 c -0.310596,3.12929 -1.749359,6.08885 -1.634382,9.26785 0.07775,1.08498 0.695825,2.13654 1.701794,2.60217 0.790309,0.45365 1.76865,0.84411 2.658079,0.42652 1.374178,-0.60494 2.340492,-1.82387 3.267996,-2.95996 2.065236,-2.65551 3.617008,-5.67127 4.94991,-8.74798 0.309005,-0.75687 0.588931,-1.53336 0.716565,-2.34392 -0.205916,-0.42539 -0.02393,0.65236 -0.01041,0.92372 0.40055,4.11994 0.8011,8.23989 1.20165,12.35983"
           style="fill:none;stroke:#000000;stroke-width:1.85208333;stroke-linecap:round;stroke-linejoin:miter;stroke-miterlimit:4;stroke-dasharray:none;stroke-opacity:1" />
      </g>
      <path
         sodipodi:nodetypes="cccccc"
         inkscape:connector-curvature="0"
         id="path858"
         d="m 94.194352,160.11726 c -6.605616,5.78662 -6.593686,14.7207 -4.847146,22.42149 1.253868,6.8111 3.899983,13.23035 6.54448,19.59083 3.794987,9.80731 5.982264,20.77217 3.068748,31.114 -0.90209,3.66509 -2.824471,7.95249 -6.769439,9.06483 -1.859035,0.92095 -3.846221,-0.52752 -5.256472,-2.19383"
         style="fill:none;stroke:#fab406;stroke-width:2.59344578;stroke-linecap:round;stroke-linejoin:miter;stroke-miterlimit:4;stroke-dasharray:none;stroke-opacity:1" />
      <g
         transform="translate(60.670183,-0.53453906)"
         id="g871"
         style="stroke:#000000;stroke-width:1.85208333;stroke-linecap:round;stroke-miterlimit:4;stroke-dasharray:none;stroke-opacity:1">
        <path
           inkscape:connector-curvature="0"
           id="path867"
           d="m 45.924107,179.63839 0.188987,38.55357 17.008929,-27.02529"
           style="fill:none;stroke:#000000;stroke-width:1.85208333;stroke-linecap:round;stroke-linejoin:miter;stroke-miterlimit:4;stroke-dasharray:none;stroke-opacity:1" />
        <path
           inkscape:connector-curvature="0"
           id="path869"
           d="m 54.050593,206.09672 11.90625,14.55209"
           style="fill:none;stroke:#000000;stroke-width:1.85208333;stroke-linecap:round;stroke-linejoin:miter;stroke-miterlimit:4;stroke-dasharray:none;stroke-opacity:1" />
      </g>
      <g
         style="stroke:#000000;stroke-width:1.85208333;stroke-linecap:round;stroke-miterlimit:4;stroke-dasharray:none;stroke-opacity:1"
         id="g889">
        <g
           style="stroke:#000000;stroke-width:1.85208333;stroke-linecap:round;stroke-miterlimit:4;stroke-dasharray:none;stroke-opacity:1"
           id="g882">
          <path
             sodipodi:nodetypes="ccccccccc"
             inkscape:connector-curvature="0"
             id="path873"
             d="m 143.65737,203.32203 c -3.4884,-0.5477 -7.0221,0.88874 -9.62716,3.16379 -2.24398,1.96959 -4.15935,4.53156 -4.66728,7.5359 -0.20077,1.24057 -0.19105,2.58206 0.32176,3.74309 0.89157,1.14978 2.55572,1.0558 3.77648,0.54786 1.16473,-0.38926 1.88807,-1.42612 2.76429,-2.2184 1.97033,-1.94439 3.9089,-3.92337 5.7436,-5.99713 0.5629,1.8508 0.8867,3.74907 1.42576,5.59843 0.1787,0.86408 0.35402,1.72886 0.52982,2.59354"
             style="fill:none;stroke:#000000;stroke-width:1.85208333;stroke-linecap:round;stroke-linejoin:miter;stroke-miterlimit:4;stroke-dasharray:none;stroke-opacity:1" />
        </g>
      </g>
    </g>
  </g>
</svg>
