<?xml version="1.0" encoding="UTF-8" standalone="no"?>
<!-- Created with Inkscape (http://www.inkscape.org/) -->

<svg
   xmlns:osb="http://www.openswatchbook.org/uri/2009/osb"
   xmlns:dc="http://purl.org/dc/elements/1.1/"
   xmlns:cc="http://creativecommons.org/ns#"
   xmlns:rdf="http://www.w3.org/1999/02/22-rdf-syntax-ns#"
   xmlns:svg="http://www.w3.org/2000/svg"
   xmlns="http://www.w3.org/2000/svg"
   xmlns:xlink="http://www.w3.org/1999/xlink"
   xmlns:sodipodi="http://sodipodi.sourceforge.net/DTD/sodipodi-0.dtd"
   xmlns:inkscape="http://www.inkscape.org/namespaces/inkscape"
   width="1280"
   height="720"
   viewBox="0 0 338.66666 190.50001"
   version="1.1"
   id="svg8"
   inkscape:version="0.92.3 (2405546, 2018-03-11)"
   sodipodi:docname="wave-bg-lg.svg">
  <sodipodi:namedview
     id="base"
     pagecolor="#b7b7b7"
     bordercolor="#666666"
     borderopacity="1.0"
     inkscape:pageopacity="0"
     inkscape:pageshadow="2"
     inkscape:zoom="0.35"
     inkscape:cx="840.90362"
     inkscape:cy="208.22044"
     inkscape:document-units="mm"
     inkscape:current-layer="layer1"
     showgrid="false"
     units="px"
     inkscape:window-width="1920"
     inkscape:window-height="1025"
     inkscape:window-x="0"
     inkscape:window-y="0"
     inkscape:window-maximized="1"
     inkscape:object-nodes="false"
     inkscape:snap-midpoints="false"
     inkscape:snap-smooth-nodes="false"
     inkscape:snap-bbox="false"
     inkscape:pagecheckerboard="true" />
  <defs
     id="defs2">
    <linearGradient
       inkscape:collect="always"
       id="linearGradient884">
      <stop
         style="stop-color:#ff5a2c;stop-opacity:1;"
         offset="0"
         id="stop880" />
      <stop
         style="stop-color:#ffe6d5;stop-opacity:1"
         offset="1"
         id="stop882" />
    </linearGradient>
    <linearGradient
       inkscape:collect="always"
       id="linearGradient872">
      <stop
         style="stop-color:#ff9f1a;stop-opacity:1;"
         offset="0"
         id="stop868" />
      <stop
         style="stop-color:#ffe6d5;stop-opacity:1"
         offset="1"
         id="stop870" />
    </linearGradient>
    <linearGradient
       osb:paint="gradient"
       id="linearGradient1131">
      <stop
         id="stop1127"
         offset="0"
         style="stop-color:#ffcc00;stop-opacity:1" />
      <stop
         id="stop1129"
         offset="1"
         style="stop-color:#fff6d5;stop-opacity:1" />
    </linearGradient>
    <linearGradient
       osb:paint="gradient"
       id="linearGradient1953">
      <stop
         id="stop1949"
         offset="0"
         style="stop-color:#ff3900;stop-opacity:1" />
      <stop
         id="stop1951"
         offset="1"
         style="stop-color:#fff6f7;stop-opacity:1" />
    </linearGradient>
    <linearGradient
       osb:paint="gradient"
       id="linearGradient1109">
      <stop
         id="stop1105"
         offset="0"
         style="stop-color:#ffee00;stop-opacity:1" />
      <stop
         id="stop1107"
         offset="1"
         style="stop-color:#ffffde;stop-opacity:1" />
    </linearGradient>
    <linearGradient
       id="linearGradient996"
       osb:paint="gradient">
      <stop
         style="stop-color:#ff9100;stop-opacity:1"
         offset="0"
         id="stop992" />
      <stop
         style="stop-color:#ffeaaa;stop-opacity:1"
         offset="1"
         id="stop994" />
    </linearGradient>
    <linearGradient
       inkscape:collect="always"
       xlink:href="#linearGradient1131"
       id="linearGradient1125"
       gradientUnits="userSpaceOnUse"
       gradientTransform="translate(-14.345453,-4.9564145)"
       x1="3.5119393"
       y1="190.73225"
       x2="254.97513"
       y2="190.09216" />
    <linearGradient
       inkscape:collect="always"
       xlink:href="#linearGradient872"
       id="linearGradient874"
       x1="51.296202"
       y1="167.00708"
       x2="286.1673"
       y2="147.35233"
       gradientUnits="userSpaceOnUse"
       gradientTransform="translate(-49.892856,48.002976)" />
    <linearGradient
       inkscape:collect="always"
       xlink:href="#linearGradient884"
       id="linearGradient886"
       x1="91.739654"
       y1="148.48625"
       x2="367.43219"
       y2="148.48625"
       gradientUnits="userSpaceOnUse"
       gradientTransform="translate(-59.808013,38.530641)" />
  </defs>
  <metadata
     id="metadata5">
    <rdf:RDF>
      <cc:Work
         rdf:about="">
        <dc:format>image/svg+xml</dc:format>
        <dc:type
           rdf:resource="http://purl.org/dc/dcmitype/StillImage" />
        <dc:title />
      </cc:Work>
    </rdf:RDF>
  </metadata>
  <g
     transform="translate(0,-106.49998)"
     id="layer1"
     inkscape:groupmode="layer"
     inkscape:label="Layer 1">
    <path
       style="fill:url(#linearGradient886);fill-opacity:1;fill-rule:nonzero;stroke:#ffaaaa;stroke-width:0.31106341;stroke-linecap:round;stroke-linejoin:round;stroke-miterlimit:4;stroke-dasharray:none;stroke-opacity:1"
       d="m 80.825047,105.88327 c -17.37288,0.0103 -33.51348,7.51004 -48.738051,15.11847 13.591281,-4.41465 29.121881,-12.40033 42.455911,-2.70521 24.841541,13.29732 37.324353,40.18832 49.358543,64.3092 12.76038,27.0463 27.48666,56.25049 55.45853,70.31864 30.17388,15.96056 66.03274,18.0164 99.1681,12.38358 10.44036,-4.19505 21.35917,-9.39509 28.94061,-17.82054 -11.38174,6.19087 -24.68607,15.80504 -40.63438,14.10184 -33.39963,-4.7412 -54.63387,-18.84388 -74.63763,-39.18715 -29.97019,-29.88063 -46.17361,-70.14591 -73.59934,-101.9946 -10.27396,-9.26245 -24.118103,-13.81193 -37.772293,-14.52423 z"
       id="path876"
       inkscape:connector-curvature="0"
       sodipodi:nodetypes="ccccccccccc" />
    <path
       style="fill:url(#linearGradient1125);fill-opacity:1;fill-rule:nonzero;stroke:#ffaaaa;stroke-width:0.31106341;stroke-linecap:round;stroke-linejoin:round;stroke-miterlimit:4;stroke-dasharray:none;stroke-opacity:1"
       d="m 66.54973,119.51335 c -17.372882,0.0103 -33.513483,7.51004 -48.738055,15.11847 13.591277,-4.41465 29.121882,-12.40033 42.45591,-2.70521 24.841543,13.29732 37.324364,40.18831 49.358555,64.30919 12.76038,27.0463 27.48666,56.25049 55.45853,70.31864 30.17388,15.96056 66.03274,18.0164 99.1681,12.38358 10.44036,-4.19505 21.35917,-9.39509 28.94061,-17.82054 -11.38174,6.19087 -24.68607,15.80504 -40.63438,14.10184 -33.39963,-4.7412 -54.63387,-18.84388 -74.63763,-39.18715 -29.97019,-29.88063 -46.17361,-70.14591 -73.59934,-101.99459 -10.273958,-9.26245 -24.118113,-13.81193 -37.7723,-14.52423 z"
       id="path1123"
       inkscape:connector-curvature="0"
       sodipodi:nodetypes="ccccccccccc" />
    <path
       sodipodi:nodetypes="ccccccccccc"
       inkscape:connector-curvature="0"
       id="path830"
       d="m 50.296754,133.87645 c -17.37288,0.0103 -33.513481,7.51004 -48.7380531,15.11847 13.5912771,-4.41465 29.1218821,-12.40033 42.4559101,-2.70521 24.841543,13.29732 37.324363,40.18831 49.358553,64.30919 12.760376,27.0463 27.486656,56.25049 55.458526,70.31864 30.17388,15.96056 66.03274,18.0164 99.1681,12.38358 10.44036,-4.19505 21.35917,-9.39509 28.94061,-17.82054 -11.38174,6.19087 -24.68607,15.80504 -40.63438,14.10184 -33.39963,-4.7412 -54.63387,-18.84388 -74.63763,-39.18715 -29.97019,-29.88063 -46.17361,-70.14591 -73.599336,-101.99459 -10.27396,-9.26245 -24.11811,-13.81193 -37.7723,-14.52423 z"
       style="fill:url(#linearGradient874);fill-opacity:1;fill-rule:nonzero;stroke:#ffaaaa;stroke-width:0.31106341;stroke-linecap:round;stroke-linejoin:round;stroke-miterlimit:4;stroke-dasharray:none;stroke-opacity:1" />
  </g>
</svg>
